<mxfile host="app.diagrams.net" modified="2021-04-23T06:48:15.899Z" agent="5.0 (Macintosh; Intel Mac OS X 10_16_0) AppleWebKit/537.36 (KHTML, like Gecko) Chrome/81.0.4044.138 Safari/537.36" etag="Qe4UtYTBUYl-yd57FrlR" version="14.6.5" type="github">
  <diagram id="TFV6jmOfadnuMpX12k5D" name="Page-1">
    <mxGraphModel dx="1298" dy="703" grid="1" gridSize="10" guides="1" tooltips="1" connect="1" arrows="1" fold="1" page="1" pageScale="1" pageWidth="827" pageHeight="1169" math="0" shadow="0">
      <root>
        <mxCell id="0" />
        <mxCell id="1" parent="0" />
        <mxCell id="ESa8Uhbp2ngGyGtJYHnS-1" value="" style="fontColor=#0066CC;verticalAlign=top;verticalLabelPosition=bottom;labelPosition=center;align=center;html=1;outlineConnect=0;fillColor=#CCCCCC;strokeColor=#6881B3;gradientColor=none;gradientDirection=north;strokeWidth=2;shape=mxgraph.networks.web_server;" vertex="1" parent="1">
          <mxGeometry x="230" y="250" width="105" height="105" as="geometry" />
        </mxCell>
        <mxCell id="ESa8Uhbp2ngGyGtJYHnS-2" value="" style="fontColor=#0066CC;verticalAlign=top;verticalLabelPosition=bottom;labelPosition=center;align=center;html=1;outlineConnect=0;fillColor=#CCCCCC;strokeColor=#6881B3;gradientColor=none;gradientDirection=north;strokeWidth=2;shape=mxgraph.networks.web_server;" vertex="1" parent="1">
          <mxGeometry x="380" y="250" width="105" height="105" as="geometry" />
        </mxCell>
        <mxCell id="ESa8Uhbp2ngGyGtJYHnS-3" value="" style="fontColor=#0066CC;verticalAlign=top;verticalLabelPosition=bottom;labelPosition=center;align=center;html=1;outlineConnect=0;fillColor=#CCCCCC;strokeColor=#6881B3;gradientColor=none;gradientDirection=north;strokeWidth=2;shape=mxgraph.networks.web_server;" vertex="1" parent="1">
          <mxGeometry x="540" y="250" width="105" height="105" as="geometry" />
        </mxCell>
        <mxCell id="ESa8Uhbp2ngGyGtJYHnS-16" value="" style="edgeStyle=orthogonalEdgeStyle;rounded=0;orthogonalLoop=1;jettySize=auto;html=1;" edge="1" parent="1" source="ESa8Uhbp2ngGyGtJYHnS-4">
          <mxGeometry relative="1" as="geometry">
            <mxPoint x="430" y="380" as="targetPoint" />
          </mxGeometry>
        </mxCell>
        <mxCell id="ESa8Uhbp2ngGyGtJYHnS-17" value="访问" style="edgeLabel;html=1;align=center;verticalAlign=middle;resizable=0;points=[];" vertex="1" connectable="0" parent="ESa8Uhbp2ngGyGtJYHnS-16">
          <mxGeometry x="0.0615" y="2" relative="1" as="geometry">
            <mxPoint as="offset" />
          </mxGeometry>
        </mxCell>
        <mxCell id="ESa8Uhbp2ngGyGtJYHnS-4" value="" style="fontColor=#0066CC;verticalAlign=top;verticalLabelPosition=bottom;labelPosition=center;align=center;html=1;outlineConnect=0;fillColor=#CCCCCC;strokeColor=#6881B3;gradientColor=none;gradientDirection=north;strokeWidth=2;shape=mxgraph.networks.pc;" vertex="1" parent="1">
          <mxGeometry x="380" y="510" width="100" height="70" as="geometry" />
        </mxCell>
        <mxCell id="ESa8Uhbp2ngGyGtJYHnS-22" value="" style="edgeStyle=orthogonalEdgeStyle;rounded=0;orthogonalLoop=1;jettySize=auto;html=1;" edge="1" parent="1" source="ESa8Uhbp2ngGyGtJYHnS-5">
          <mxGeometry relative="1" as="geometry">
            <mxPoint x="280" y="370" as="targetPoint" />
          </mxGeometry>
        </mxCell>
        <mxCell id="ESa8Uhbp2ngGyGtJYHnS-24" value="链接" style="edgeLabel;html=1;align=center;verticalAlign=middle;resizable=0;points=[];" vertex="1" connectable="0" parent="ESa8Uhbp2ngGyGtJYHnS-22">
          <mxGeometry x="0.0857" y="-2" relative="1" as="geometry">
            <mxPoint as="offset" />
          </mxGeometry>
        </mxCell>
        <mxCell id="ESa8Uhbp2ngGyGtJYHnS-5" value="" style="fontColor=#0066CC;verticalAlign=top;verticalLabelPosition=bottom;labelPosition=center;align=center;html=1;outlineConnect=0;fillColor=#CCCCCC;strokeColor=#6881B3;gradientColor=none;gradientDirection=north;strokeWidth=2;shape=mxgraph.networks.nas_filer;" vertex="1" parent="1">
          <mxGeometry x="230" y="527.5" width="100" height="35" as="geometry" />
        </mxCell>
        <mxCell id="ESa8Uhbp2ngGyGtJYHnS-10" value="" style="edgeStyle=orthogonalEdgeStyle;rounded=0;orthogonalLoop=1;jettySize=auto;html=1;" edge="1" parent="1">
          <mxGeometry relative="1" as="geometry">
            <mxPoint x="111" y="287.5" as="sourcePoint" />
            <mxPoint x="221" y="288" as="targetPoint" />
            <Array as="points">
              <mxPoint x="190" y="288" />
              <mxPoint x="190" y="288" />
            </Array>
          </mxGeometry>
        </mxCell>
        <mxCell id="ESa8Uhbp2ngGyGtJYHnS-8" value="现场GTS" style="text;html=1;align=center;verticalAlign=middle;resizable=0;points=[];autosize=1;strokeColor=none;strokeWidth=16;" vertex="1" parent="1">
          <mxGeometry x="34" y="330" width="60" height="20" as="geometry" />
        </mxCell>
        <mxCell id="ESa8Uhbp2ngGyGtJYHnS-11" value="部署" style="text;html=1;align=center;verticalAlign=middle;resizable=0;points=[];autosize=1;strokeColor=none;strokeWidth=20;fontSize=16;" vertex="1" parent="1">
          <mxGeometry x="136" y="260" width="50" height="20" as="geometry" />
        </mxCell>
        <mxCell id="ESa8Uhbp2ngGyGtJYHnS-12" value="轻空间" style="text;html=1;align=center;verticalAlign=middle;resizable=0;points=[];autosize=1;strokeColor=none;strokeWidth=16;fontSize=16;" vertex="1" parent="1">
          <mxGeometry x="251" y="210" width="60" height="20" as="geometry" />
        </mxCell>
        <mxCell id="ESa8Uhbp2ngGyGtJYHnS-13" value="管控" style="text;html=1;align=center;verticalAlign=middle;resizable=0;points=[];autosize=1;strokeColor=none;strokeWidth=16;fontSize=16;" vertex="1" parent="1">
          <mxGeometry x="401" y="210" width="50" height="20" as="geometry" />
        </mxCell>
        <mxCell id="ESa8Uhbp2ngGyGtJYHnS-14" value="ECS集群" style="text;html=1;align=center;verticalAlign=middle;resizable=0;points=[];autosize=1;strokeColor=none;strokeWidth=16;fontSize=16;" vertex="1" parent="1">
          <mxGeometry x="541" y="210" width="80" height="20" as="geometry" />
        </mxCell>
        <mxCell id="ESa8Uhbp2ngGyGtJYHnS-20" value="" style="edgeStyle=orthogonalEdgeStyle;rounded=0;orthogonalLoop=1;jettySize=auto;html=1;" edge="1" parent="1" target="ESa8Uhbp2ngGyGtJYHnS-5">
          <mxGeometry relative="1" as="geometry">
            <mxPoint x="130" y="545" as="sourcePoint" />
          </mxGeometry>
        </mxCell>
        <mxCell id="ESa8Uhbp2ngGyGtJYHnS-26" value="" style="pointerEvents=1;shadow=0;dashed=0;html=1;strokeColor=none;labelPosition=center;verticalLabelPosition=bottom;verticalAlign=top;outlineConnect=0;align=center;shape=mxgraph.office.users.users;fillColor=#7FBA42;" vertex="1" parent="1">
          <mxGeometry x="53" y="502.5" width="46" height="50" as="geometry" />
        </mxCell>
        <mxCell id="ESa8Uhbp2ngGyGtJYHnS-27" value="企业员工" style="text;html=1;align=center;verticalAlign=middle;resizable=0;points=[];autosize=1;strokeColor=none;strokeWidth=16;" vertex="1" parent="1">
          <mxGeometry x="51" y="567.5" width="60" height="20" as="geometry" />
        </mxCell>
        <mxCell id="ESa8Uhbp2ngGyGtJYHnS-28" value="" style="pointerEvents=1;shadow=0;dashed=0;html=1;strokeColor=none;labelPosition=center;verticalLabelPosition=bottom;verticalAlign=top;outlineConnect=0;align=center;shape=mxgraph.office.users.user;fillColor=#2072B8;" vertex="1" parent="1">
          <mxGeometry x="40" y="260" width="46" height="50" as="geometry" />
        </mxCell>
        <mxCell id="ESa8Uhbp2ngGyGtJYHnS-31" value="" style="edgeStyle=orthogonalEdgeStyle;rounded=0;orthogonalLoop=1;jettySize=auto;html=1;" edge="1" parent="1" source="ESa8Uhbp2ngGyGtJYHnS-29" target="ESa8Uhbp2ngGyGtJYHnS-4">
          <mxGeometry relative="1" as="geometry" />
        </mxCell>
        <mxCell id="ESa8Uhbp2ngGyGtJYHnS-29" value="" style="pointerEvents=1;shadow=0;dashed=0;html=1;strokeColor=none;fillColor=#505050;labelPosition=center;verticalLabelPosition=bottom;verticalAlign=top;outlineConnect=0;align=center;shape=mxgraph.office.users.user_services;" vertex="1" parent="1">
          <mxGeometry x="563" y="516" width="59" height="59" as="geometry" />
        </mxCell>
        <mxCell id="ESa8Uhbp2ngGyGtJYHnS-30" value="管理员" style="text;html=1;align=center;verticalAlign=middle;resizable=0;points=[];autosize=1;strokeColor=none;fontSize=16;" vertex="1" parent="1">
          <mxGeometry x="562" y="585" width="60" height="20" as="geometry" />
        </mxCell>
        <mxCell id="ESa8Uhbp2ngGyGtJYHnS-33" value="" style="line;strokeWidth=4;html=1;perimeter=backbonePerimeter;points=[];outlineConnect=0;" vertex="1" parent="1">
          <mxGeometry x="33" y="420" width="727" height="10" as="geometry" />
        </mxCell>
        <mxCell id="ESa8Uhbp2ngGyGtJYHnS-34" value="&lt;font style=&quot;font-size: 25px&quot;&gt;服务端&lt;/font&gt;" style="text;html=1;align=center;verticalAlign=middle;resizable=0;points=[];autosize=1;strokeColor=none;" vertex="1" parent="1">
          <mxGeometry x="655" y="280" width="90" height="20" as="geometry" />
        </mxCell>
        <mxCell id="ESa8Uhbp2ngGyGtJYHnS-35" value="&lt;font style=&quot;font-size: 25px&quot;&gt;客户端&lt;/font&gt;" style="text;html=1;align=center;verticalAlign=middle;resizable=0;points=[];autosize=1;strokeColor=none;" vertex="1" parent="1">
          <mxGeometry x="655" y="507.5" width="90" height="20" as="geometry" />
        </mxCell>
        <mxCell id="ESa8Uhbp2ngGyGtJYHnS-36" value="pc" style="text;html=1;align=center;verticalAlign=middle;resizable=0;points=[];autosize=1;strokeColor=none;fontSize=16;" vertex="1" parent="1">
          <mxGeometry x="411" y="587.5" width="30" height="20" as="geometry" />
        </mxCell>
        <mxCell id="ESa8Uhbp2ngGyGtJYHnS-37" value="零终端" style="text;html=1;align=center;verticalAlign=middle;resizable=0;points=[];autosize=1;strokeColor=none;fontSize=16;" vertex="1" parent="1">
          <mxGeometry x="250" y="570" width="60" height="20" as="geometry" />
        </mxCell>
      </root>
    </mxGraphModel>
  </diagram>
</mxfile>
